TITLE ""
FILE "Step2_Track11.mp3" MP3
  TRACK 01 AUDIO
    TITLE "Step2_Track11_01"
    INDEX 01 00:00:00
  TRACK 02 AUDIO
    TITLE "Step2_Track11_02"
    INDEX 01 00:00:24
  TRACK 03 AUDIO
    TITLE "Step2_Track11_03"
    INDEX 01 00:01:55
  TRACK 04 AUDIO
    TITLE "Step2_Track11_04"
    INDEX 01 00:02:43
  TRACK 05 AUDIO
    TITLE "Step2_Track11_05"
    INDEX 01 00:03:34
  TRACK 06 AUDIO
    TITLE "Step2_Track11_06"
    INDEX 01 00:03:50
  TRACK 07 AUDIO
    TITLE "Step2_Track11_07"
    INDEX 01 00:06:11
  TRACK 08 AUDIO
    TITLE "Step2_Track11_08"
    INDEX 01 00:06:38
  TRACK 09 AUDIO
    TITLE "Step2_Track11_09"
    INDEX 01 00:07:36
  TRACK 10 AUDIO
    TITLE "Step2_Track11_10"
    INDEX 01 00:07:38
  TRACK 11 AUDIO
    TITLE "Step2_Track11_11"
    INDEX 01 00:09:54
  TRACK 12 AUDIO
    TITLE "Step2_Track11_12"
    INDEX 01 00:10:07
  TRACK 13 AUDIO
    TITLE "Step2_Track11_13"
    INDEX 01 00:11:08
  TRACK 14 AUDIO
    TITLE "Step2_Track11_14"
    INDEX 01 00:11:12
  TRACK 15 AUDIO
    TITLE "Step2_Track11_15"
    INDEX 01 00:13:62
  TRACK 16 AUDIO
    TITLE "Step2_Track11_16"
    INDEX 01 00:14:16
  TRACK 17 AUDIO
    TITLE "Step2_Track11_17"
    INDEX 01 00:15:14
  TRACK 18 AUDIO
    TITLE "Step2_Track11_18"
    INDEX 01 00:15:24
  TRACK 19 AUDIO
    TITLE "Step2_Track11_19"
    INDEX 01 00:18:34
  TRACK 20 AUDIO
    TITLE "Step2_Track11_20"
    INDEX 01 00:18:55
  TRACK 21 AUDIO
    TITLE "Step2_Track11_21"
    INDEX 01 00:19:49
  TRACK 22 AUDIO
    TITLE "Step2_Track11_22"
    INDEX 01 00:19:68
  TRACK 23 AUDIO
    TITLE "Step2_Track11_23"
    INDEX 01 00:23:11
  TRACK 24 AUDIO
    TITLE "Step2_Track11_24"
    INDEX 01 00:23:23
  TRACK 25 AUDIO
    TITLE "Step2_Track11_25"
    INDEX 01 00:24:28
  TRACK 26 AUDIO
    TITLE "Step2_Track11_26"
    INDEX 01 00:24:42
  TRACK 27 AUDIO
    TITLE "Step2_Track11_27"
    INDEX 01 00:27:31
  TRACK 28 AUDIO
    TITLE "Step2_Track11_28"
    INDEX 01 00:27:42
  TRACK 29 AUDIO
    TITLE "Step2_Track11_29"
    INDEX 01 00:28:40
  TRACK 30 AUDIO
    TITLE "Step2_Track11_30"
    INDEX 01 00:28:63
  TRACK 31 AUDIO
    TITLE "Step2_Track11_31"
    INDEX 01 00:31:50
  TRACK 32 AUDIO
    TITLE "Step2_Track11_32"
    INDEX 01 00:31:66
  TRACK 33 AUDIO
    TITLE "Step2_Track11_33"
    INDEX 01 00:32:44
  TRACK 34 AUDIO
    TITLE "Step2_Track11_34"
    INDEX 01 00:32:71
  TRACK 35 AUDIO
    TITLE "Step2_Track11_35"
    INDEX 01 00:35:20
  TRACK 36 AUDIO
    TITLE "Step2_Track11_36"
    INDEX 01 00:35:52
  TRACK 37 AUDIO
    TITLE "Step2_Track11_37"
    INDEX 01 00:36:53
  TRACK 38 AUDIO
    TITLE "Step2_Track11_38"
    INDEX 01 00:36:63
  TRACK 39 AUDIO
    TITLE "Step2_Track11_39"
    INDEX 01 00:38:48
  TRACK 40 AUDIO
    TITLE "Step2_Track11_40"
    INDEX 01 00:39:12
  TRACK 41 AUDIO
    TITLE "Step2_Track11_41"
    INDEX 01 00:40:06
  TRACK 42 AUDIO
    TITLE "Step2_Track11_42"
    INDEX 01 00:40:18
  TRACK 43 AUDIO
    TITLE "Step2_Track11_43"
    INDEX 01 00:41:41
